<mxfile host="app.diagrams.net" modified="2021-07-04T07:50:56.150Z" agent="5.0 (Windows)" etag="Dk5XsjHS9a4OKtumo3jb" version="14.8.4" type="github">
  <diagram id="C5RBs43oDa-KdzZeNtuy" name="Page-1">
    <mxGraphModel dx="1385" dy="650" grid="1" gridSize="10" guides="1" tooltips="1" connect="1" arrows="1" fold="1" page="1" pageScale="1" pageWidth="827" pageHeight="1169" math="0" shadow="0">
      <root>
        <mxCell id="WIyWlLk6GJQsqaUBKTNV-0" />
        <mxCell id="WIyWlLk6GJQsqaUBKTNV-1" parent="WIyWlLk6GJQsqaUBKTNV-0" />
        <mxCell id="KeIN5PGA3XgpnAhD5r2X-17" value="N" style="text;html=1;strokeColor=none;fillColor=none;align=center;verticalAlign=middle;whiteSpace=wrap;rounded=0;" vertex="1" parent="WIyWlLk6GJQsqaUBKTNV-1">
          <mxGeometry x="272.5" y="280" width="40" height="20" as="geometry" />
        </mxCell>
        <mxCell id="KeIN5PGA3XgpnAhD5r2X-0" value="" style="rounded=0;html=1;jettySize=auto;orthogonalLoop=1;fontSize=11;endArrow=block;endFill=0;endSize=8;strokeWidth=1;shadow=0;labelBackgroundColor=none;edgeStyle=orthogonalEdgeStyle;" edge="1" parent="WIyWlLk6GJQsqaUBKTNV-1" target="KeIN5PGA3XgpnAhD5r2X-19">
          <mxGeometry x="60" y="185" as="geometry">
            <mxPoint x="100" y="465" as="sourcePoint" />
            <mxPoint x="245" y="455" as="targetPoint" />
            <Array as="points" />
          </mxGeometry>
        </mxCell>
        <mxCell id="KeIN5PGA3XgpnAhD5r2X-2" value="True?" style="rhombus;whiteSpace=wrap;html=1;shadow=0;fontFamily=Helvetica;fontSize=12;align=center;strokeWidth=1;spacing=6;spacingTop=-4;" vertex="1" parent="WIyWlLk6GJQsqaUBKTNV-1">
          <mxGeometry x="45" y="100" width="100" height="80" as="geometry" />
        </mxCell>
        <mxCell id="KeIN5PGA3XgpnAhD5r2X-4" value="print(&#39;Who are you?&#39;)" style="rounded=0;whiteSpace=wrap;html=1;" vertex="1" parent="WIyWlLk6GJQsqaUBKTNV-1">
          <mxGeometry x="217.5" y="128.75" width="125" height="22.5" as="geometry" />
        </mxCell>
        <mxCell id="KeIN5PGA3XgpnAhD5r2X-5" value="name!=&#39;Joe&#39;" style="rhombus;whiteSpace=wrap;html=1;shadow=0;fontFamily=Helvetica;fontSize=12;align=center;strokeWidth=1;spacing=6;spacingTop=-4;" vertex="1" parent="WIyWlLk6GJQsqaUBKTNV-1">
          <mxGeometry x="230" y="210" width="100" height="80" as="geometry" />
        </mxCell>
        <mxCell id="KeIN5PGA3XgpnAhD5r2X-6" value="name=input()" style="rounded=0;whiteSpace=wrap;html=1;" vertex="1" parent="WIyWlLk6GJQsqaUBKTNV-1">
          <mxGeometry x="217.5" y="170" width="125" height="20" as="geometry" />
        </mxCell>
        <mxCell id="KeIN5PGA3XgpnAhD5r2X-7" value="break" style="rounded=0;whiteSpace=wrap;html=1;" vertex="1" parent="WIyWlLk6GJQsqaUBKTNV-1">
          <mxGeometry x="250" y="450" width="60" height="20" as="geometry" />
        </mxCell>
        <mxCell id="KeIN5PGA3XgpnAhD5r2X-8" value="" style="ellipse;whiteSpace=wrap;html=1;aspect=fixed;" vertex="1" parent="WIyWlLk6GJQsqaUBKTNV-1">
          <mxGeometry x="90" y="450" width="20" height="20" as="geometry" />
        </mxCell>
        <mxCell id="KeIN5PGA3XgpnAhD5r2X-11" value="" style="rounded=0;html=1;jettySize=auto;orthogonalLoop=1;fontSize=11;endArrow=block;endFill=0;endSize=8;strokeWidth=1;shadow=0;labelBackgroundColor=none;edgeStyle=orthogonalEdgeStyle;entryX=0.5;entryY=0;entryDx=0;entryDy=0;" edge="1" parent="WIyWlLk6GJQsqaUBKTNV-1" target="KeIN5PGA3XgpnAhD5r2X-5">
          <mxGeometry x="95" y="40" as="geometry">
            <mxPoint x="280" y="190" as="sourcePoint" />
            <mxPoint x="290" y="170" as="targetPoint" />
            <Array as="points">
              <mxPoint x="280" y="210" />
              <mxPoint x="280" y="210" />
            </Array>
          </mxGeometry>
        </mxCell>
        <mxCell id="KeIN5PGA3XgpnAhD5r2X-12" value="" style="rounded=0;html=1;jettySize=auto;orthogonalLoop=1;fontSize=11;endArrow=block;endFill=0;endSize=8;strokeWidth=1;shadow=0;labelBackgroundColor=none;edgeStyle=orthogonalEdgeStyle;entryX=0.5;entryY=0;entryDx=0;entryDy=0;exitX=0.5;exitY=1;exitDx=0;exitDy=0;" edge="1" parent="WIyWlLk6GJQsqaUBKTNV-1" target="KeIN5PGA3XgpnAhD5r2X-7" source="KeIN5PGA3XgpnAhD5r2X-30">
          <mxGeometry x="90" y="130" as="geometry">
            <mxPoint x="275" y="380" as="sourcePoint" />
            <mxPoint x="285" y="320" as="targetPoint" />
            <Array as="points" />
          </mxGeometry>
        </mxCell>
        <mxCell id="KeIN5PGA3XgpnAhD5r2X-13" value="" style="rounded=0;html=1;jettySize=auto;orthogonalLoop=1;fontSize=11;endArrow=block;endFill=0;endSize=8;strokeWidth=1;shadow=0;labelBackgroundColor=none;edgeStyle=orthogonalEdgeStyle;entryX=1;entryY=0.5;entryDx=0;entryDy=0;exitX=0;exitY=0.5;exitDx=0;exitDy=0;" edge="1" parent="WIyWlLk6GJQsqaUBKTNV-1" source="KeIN5PGA3XgpnAhD5r2X-7" target="KeIN5PGA3XgpnAhD5r2X-8">
          <mxGeometry x="50" y="175" as="geometry">
            <mxPoint x="172.5" y="460" as="sourcePoint" />
            <mxPoint x="180" y="275" as="targetPoint" />
          </mxGeometry>
        </mxCell>
        <mxCell id="KeIN5PGA3XgpnAhD5r2X-14" value="" style="rounded=0;html=1;jettySize=auto;orthogonalLoop=1;fontSize=11;endArrow=block;endFill=0;endSize=8;strokeWidth=1;shadow=0;labelBackgroundColor=none;edgeStyle=orthogonalEdgeStyle;exitX=0;exitY=0.5;exitDx=0;exitDy=0;" edge="1" parent="WIyWlLk6GJQsqaUBKTNV-1" source="KeIN5PGA3XgpnAhD5r2X-5">
          <mxGeometry x="85" y="40" as="geometry">
            <mxPoint x="145.02857142857147" y="70" as="sourcePoint" />
            <mxPoint x="210" y="250" as="targetPoint" />
          </mxGeometry>
        </mxCell>
        <mxCell id="KeIN5PGA3XgpnAhD5r2X-15" value="" style="rounded=0;html=1;jettySize=auto;orthogonalLoop=1;fontSize=11;endArrow=block;endFill=0;endSize=8;strokeWidth=1;shadow=0;labelBackgroundColor=none;edgeStyle=orthogonalEdgeStyle;exitX=0.5;exitY=1;exitDx=0;exitDy=0;" edge="1" parent="WIyWlLk6GJQsqaUBKTNV-1">
          <mxGeometry x="50" y="230" as="geometry">
            <mxPoint x="100" y="550" as="targetPoint" />
            <mxPoint x="100" y="525" as="sourcePoint" />
          </mxGeometry>
        </mxCell>
        <mxCell id="KeIN5PGA3XgpnAhD5r2X-16" value="End" style="rounded=1;whiteSpace=wrap;html=1;fontSize=12;glass=0;strokeWidth=1;shadow=0;" vertex="1" parent="WIyWlLk6GJQsqaUBKTNV-1">
          <mxGeometry x="65" y="550" width="70" height="20" as="geometry" />
        </mxCell>
        <mxCell id="KeIN5PGA3XgpnAhD5r2X-18" value="Y" style="text;html=1;strokeColor=none;fillColor=none;align=center;verticalAlign=middle;whiteSpace=wrap;rounded=0;" vertex="1" parent="WIyWlLk6GJQsqaUBKTNV-1">
          <mxGeometry x="210" y="230" width="40" height="20" as="geometry" />
        </mxCell>
        <mxCell id="KeIN5PGA3XgpnAhD5r2X-19" value="print(&#39;Thank you&#39;)" style="rounded=0;whiteSpace=wrap;html=1;" vertex="1" parent="WIyWlLk6GJQsqaUBKTNV-1">
          <mxGeometry x="50" y="495" width="100" height="30" as="geometry" />
        </mxCell>
        <mxCell id="KeIN5PGA3XgpnAhD5r2X-21" value="" style="rounded=0;html=1;jettySize=auto;orthogonalLoop=1;fontSize=11;endArrow=block;endFill=0;endSize=8;strokeWidth=1;shadow=0;labelBackgroundColor=none;edgeStyle=orthogonalEdgeStyle;exitX=0.5;exitY=1;exitDx=0;exitDy=0;entryX=0.5;entryY=0;entryDx=0;entryDy=0;" edge="1" parent="WIyWlLk6GJQsqaUBKTNV-1" source="KeIN5PGA3XgpnAhD5r2X-22" target="KeIN5PGA3XgpnAhD5r2X-2">
          <mxGeometry x="45" y="-285" as="geometry">
            <mxPoint x="95" y="35" as="targetPoint" />
            <mxPoint x="95" y="10" as="sourcePoint" />
          </mxGeometry>
        </mxCell>
        <mxCell id="KeIN5PGA3XgpnAhD5r2X-22" value="Start" style="rounded=1;whiteSpace=wrap;html=1;fontSize=12;glass=0;strokeWidth=1;shadow=0;" vertex="1" parent="WIyWlLk6GJQsqaUBKTNV-1">
          <mxGeometry x="60" y="60" width="70" height="20" as="geometry" />
        </mxCell>
        <mxCell id="KeIN5PGA3XgpnAhD5r2X-23" value="" style="rounded=0;html=1;jettySize=auto;orthogonalLoop=1;fontSize=11;endArrow=block;endFill=0;endSize=8;strokeWidth=1;shadow=0;labelBackgroundColor=none;edgeStyle=orthogonalEdgeStyle;exitX=1;exitY=0.5;exitDx=0;exitDy=0;entryX=0;entryY=0.5;entryDx=0;entryDy=0;" edge="1" parent="WIyWlLk6GJQsqaUBKTNV-1" source="KeIN5PGA3XgpnAhD5r2X-2" target="KeIN5PGA3XgpnAhD5r2X-4">
          <mxGeometry x="55" y="60" as="geometry">
            <mxPoint x="150" y="140" as="sourcePoint" />
            <mxPoint x="165" y="140" as="targetPoint" />
            <Array as="points" />
          </mxGeometry>
        </mxCell>
        <mxCell id="KeIN5PGA3XgpnAhD5r2X-25" value="continue" style="rounded=0;whiteSpace=wrap;html=1;" vertex="1" parent="WIyWlLk6GJQsqaUBKTNV-1">
          <mxGeometry x="150" y="240" width="60" height="20" as="geometry" />
        </mxCell>
        <mxCell id="KeIN5PGA3XgpnAhD5r2X-26" value="" style="rounded=0;html=1;jettySize=auto;orthogonalLoop=1;fontSize=11;endArrow=block;endFill=0;endSize=8;strokeWidth=1;shadow=0;labelBackgroundColor=none;edgeStyle=orthogonalEdgeStyle;exitX=0;exitY=0.5;exitDx=0;exitDy=0;entryX=1;entryY=0.5;entryDx=0;entryDy=0;" edge="1" parent="WIyWlLk6GJQsqaUBKTNV-1" source="KeIN5PGA3XgpnAhD5r2X-25" target="KeIN5PGA3XgpnAhD5r2X-35">
          <mxGeometry x="65" y="70" as="geometry">
            <mxPoint x="155" y="150" as="sourcePoint" />
            <mxPoint x="140" y="250" as="targetPoint" />
            <Array as="points">
              <mxPoint x="150" y="250" />
              <mxPoint x="150" y="250" />
            </Array>
          </mxGeometry>
        </mxCell>
        <mxCell id="KeIN5PGA3XgpnAhD5r2X-28" value="" style="rounded=0;html=1;jettySize=auto;orthogonalLoop=1;fontSize=11;endArrow=block;endFill=0;endSize=8;strokeWidth=1;shadow=0;labelBackgroundColor=none;edgeStyle=orthogonalEdgeStyle;entryX=0.5;entryY=0;entryDx=0;entryDy=0;exitX=0.5;exitY=1;exitDx=0;exitDy=0;" edge="1" parent="WIyWlLk6GJQsqaUBKTNV-1" source="KeIN5PGA3XgpnAhD5r2X-4" target="KeIN5PGA3XgpnAhD5r2X-6">
          <mxGeometry x="247.51" y="49.97" as="geometry">
            <mxPoint x="432.51" y="199.97" as="sourcePoint" />
            <mxPoint x="432.51" y="219.97" as="targetPoint" />
            <Array as="points" />
          </mxGeometry>
        </mxCell>
        <mxCell id="KeIN5PGA3XgpnAhD5r2X-29" value="passwd=input()" style="rounded=0;whiteSpace=wrap;html=1;" vertex="1" parent="WIyWlLk6GJQsqaUBKTNV-1">
          <mxGeometry x="215" y="310" width="125" height="20" as="geometry" />
        </mxCell>
        <mxCell id="KeIN5PGA3XgpnAhD5r2X-30" value="passwd==&#39;123&#39;" style="rhombus;whiteSpace=wrap;html=1;shadow=0;fontFamily=Helvetica;fontSize=12;align=center;strokeWidth=1;spacing=6;spacingTop=-4;" vertex="1" parent="WIyWlLk6GJQsqaUBKTNV-1">
          <mxGeometry x="230" y="350" width="100" height="80" as="geometry" />
        </mxCell>
        <mxCell id="KeIN5PGA3XgpnAhD5r2X-31" value="" style="rounded=0;html=1;jettySize=auto;orthogonalLoop=1;fontSize=11;endArrow=block;endFill=0;endSize=8;strokeWidth=1;shadow=0;labelBackgroundColor=none;edgeStyle=orthogonalEdgeStyle;entryX=0.5;entryY=0;entryDx=0;entryDy=0;exitX=0.521;exitY=0.998;exitDx=0;exitDy=0;exitPerimeter=0;" edge="1" parent="WIyWlLk6GJQsqaUBKTNV-1" source="KeIN5PGA3XgpnAhD5r2X-29" target="KeIN5PGA3XgpnAhD5r2X-30">
          <mxGeometry x="100" y="140" as="geometry">
            <mxPoint x="290" y="440" as="sourcePoint" />
            <mxPoint x="290" y="460" as="targetPoint" />
            <Array as="points">
              <mxPoint x="280.5" y="332" />
            </Array>
          </mxGeometry>
        </mxCell>
        <mxCell id="KeIN5PGA3XgpnAhD5r2X-32" value="" style="rounded=0;html=1;jettySize=auto;orthogonalLoop=1;fontSize=11;endArrow=block;endFill=0;endSize=8;strokeWidth=1;shadow=0;labelBackgroundColor=none;edgeStyle=orthogonalEdgeStyle;exitX=0.5;exitY=1;exitDx=0;exitDy=0;" edge="1" parent="WIyWlLk6GJQsqaUBKTNV-1" source="KeIN5PGA3XgpnAhD5r2X-5" target="KeIN5PGA3XgpnAhD5r2X-29">
          <mxGeometry x="110" y="150" as="geometry">
            <mxPoint x="281.5" y="290" as="sourcePoint" />
            <mxPoint x="281.5" y="308" as="targetPoint" />
            <Array as="points">
              <mxPoint x="281.5" y="290" />
            </Array>
          </mxGeometry>
        </mxCell>
        <mxCell id="KeIN5PGA3XgpnAhD5r2X-35" value="" style="ellipse;whiteSpace=wrap;html=1;aspect=fixed;" vertex="1" parent="WIyWlLk6GJQsqaUBKTNV-1">
          <mxGeometry x="85" y="240" width="20" height="20" as="geometry" />
        </mxCell>
        <mxCell id="KeIN5PGA3XgpnAhD5r2X-37" value="" style="rounded=0;html=1;jettySize=auto;orthogonalLoop=1;fontSize=11;endArrow=block;endFill=0;endSize=8;strokeWidth=1;shadow=0;labelBackgroundColor=none;edgeStyle=orthogonalEdgeStyle;entryX=0.5;entryY=1;entryDx=0;entryDy=0;exitX=0;exitY=0.5;exitDx=0;exitDy=0;" edge="1" parent="WIyWlLk6GJQsqaUBKTNV-1" source="KeIN5PGA3XgpnAhD5r2X-30" target="KeIN5PGA3XgpnAhD5r2X-35">
          <mxGeometry x="40" y="115" as="geometry">
            <mxPoint x="162.5" y="400" as="sourcePoint" />
            <mxPoint x="100" y="400" as="targetPoint" />
          </mxGeometry>
        </mxCell>
        <mxCell id="KeIN5PGA3XgpnAhD5r2X-38" value="" style="rounded=0;html=1;jettySize=auto;orthogonalLoop=1;fontSize=11;endArrow=block;endFill=0;endSize=8;strokeWidth=1;shadow=0;labelBackgroundColor=none;edgeStyle=orthogonalEdgeStyle;exitX=0.5;exitY=0;exitDx=0;exitDy=0;entryX=0.5;entryY=1;entryDx=0;entryDy=0;" edge="1" parent="WIyWlLk6GJQsqaUBKTNV-1" source="KeIN5PGA3XgpnAhD5r2X-35" target="KeIN5PGA3XgpnAhD5r2X-2">
          <mxGeometry x="75" y="80" as="geometry">
            <mxPoint x="160" y="180" as="sourcePoint" />
            <mxPoint x="90" y="180" as="targetPoint" />
            <Array as="points">
              <mxPoint x="95" y="210" />
              <mxPoint x="95" y="210" />
            </Array>
          </mxGeometry>
        </mxCell>
      </root>
    </mxGraphModel>
  </diagram>
</mxfile>
